<svg width="1073" height="1073" viewBox="0 0 1073 1073" fill="none" xmlns="http://www.w3.org/2000/svg">
<circle cx="536.5" cy="536.5" r="536.5" fill="#82C4FC"/>
<path d="M223 944.5C280.303 904.247 261.509 881.062 402.095 818.186C511.351 792.145 569.77 797.133 670.232 818.186C765.829 858.183 724.772 888.295 804 944.5C769.262 975.928 725.657 970.5 563 970.5C404.02 970.5 282.651 989.154 223 944.5Z" fill="#38479D"/>
<path d="M414.907 650.184H662.312C600.047 775.889 611.97 826.319 744.395 868.686L533.407 897.589L328.778 875.623C466.524 820.309 482.443 770.026 414.907 650.184Z" fill="#ABD0FC"/>
<path d="M189 946C246.303 905.747 261.026 881.273 401.612 818.396C507.77 877.575 567.093 875.754 670.405 818.396C766.001 858.393 806.772 886.795 886 943C836.5 989 703.657 1073 541 1073C384.5 1073 248 1003.5 189 946Z" fill="#6279FC"/>
<path d="M763.471 539.765C763.471 659.163 666.386 755.877 540.922 755.877C415.458 755.877 313.749 659.086 313.749 539.687C313.749 420.289 410.833 249.584 536.298 249.584C661.762 249.584 763.471 420.366 763.471 539.765Z" fill="white"/>
<circle cx="772.72" cy="518.878" r="49.7122" fill="white"/>
<circle cx="309.124" cy="518.878" r="49.7122" fill="white"/>
<path d="M323 470.5C339.912 428.241 359.435 406.597 392.425 381.63C437.965 380.434 463.625 372.337 509.574 346.611C544.675 323.205 567.016 316.472 610.066 312.148C664.648 313.817 679.556 339.466 708 405.5C728.5 426 735.627 449.206 754.8 477.347L764.414 392.191L773.298 333.271C769.098 307.102 766.287 292.297 744.427 261.01C726.37 248.152 714.486 243.687 686.685 246.002C666.049 214.076 648.551 197.37 578.42 175.409C550.331 171.788 533.905 171.847 503.467 175.409C441.335 188.933 409.328 208.571 356.336 261.01C317.719 294.423 279.764 305.573 214.5 304C240.024 335.519 302.481 381.63 319.138 381.63C335.794 381.63 315.535 434.644 323 470.5Z" fill="#6270FC"/>
<path d="M384.118 340.63C367.461 340.63 240.024 335.235 214.5 303.716C287.783 276.811 325.276 253.026 503.159 134.409C592.087 130.931 630.616 149.222 686.378 205.002C714.179 202.687 726.063 207.152 744.119 220.01C811.651 255.491 792.862 459.272 756.5 481.716C737.326 453.574 673.5 374.216 714.693 361.196C755.887 348.177 675.582 267.884 621 266.216C577.95 270.539 533.101 285.31 498 308.716C452.051 334.441 429.658 339.434 384.118 340.63Z" fill="#6270FC"/>
</svg>
